<svg version="1.1" id="Layer_1" xmlns="http://www.w3.org/2000/svg" xmlns:xlink="http://www.w3.org/1999/xlink" x="0px" y="0px"
	 width="100%" viewBox="0 0 1036 924" enable-background="new 0 0 1036 924" xml:space="preserve">
<path fill="#00000000" stroke="none" 
	d="
M1.000000,326.000000 
	C1.000000,217.333328 1.000000,109.166664 1.000000,1.000000 
	C346.333344,1.000000 691.666687,1.000000 1037.000000,1.000000 
	C1037.000000,309.000000 1037.000000,617.000000 1037.000000,925.000000 
	C691.666687,925.000000 346.333344,925.000000 1.000000,925.000000 
	C1.000000,725.500000 1.000000,526.000000 1.000000,326.000000 
M619.784424,438.016663 
	C623.511108,434.877380 625.979431,431.105286 625.978943,425.085297 
	C625.978943,389.158905 625.978943,353.232483 625.978943,317.548920 
	C636.829773,317.016296 647.080688,316.833740 657.264771,315.912079 
	C665.465088,315.169983 670.945374,308.188019 670.849365,300.858612 
	C670.770325,294.819244 665.462585,286.501648 655.057922,286.031433 
	C647.239624,286.020874 639.421204,285.985321 631.602966,286.004333 
	C606.323914,286.065796 581.044800,286.147308 555.128479,286.027893 
	C552.269958,287.062347 549.095337,287.609039 546.610413,289.219879 
	C538.120544,294.723572 538.271973,305.595856 544.035339,310.769073 
	C548.611084,314.876251 553.567810,316.910980 559.466797,316.988312 
	C567.889343,317.098785 576.314453,317.016418 584.987732,317.016418 
	C584.987732,319.454865 584.987671,321.264984 584.987671,323.075104 
	C584.987854,355.879089 584.924500,388.683350 585.043884,421.486877 
	C585.066833,427.791962 586.084717,433.979004 591.982056,438.770355 
	C593.306824,439.557251 594.631653,440.344147 596.192566,441.694672 
	C596.778442,441.833099 597.364319,441.971558 598.360291,442.786774 
	C602.216797,443.176392 606.401123,444.662292 609.834106,443.635681 
	C613.026306,442.681061 617.953308,442.990143 619.021606,438.021515 
	C619.021606,438.021515 619.055908,438.101318 619.784424,438.016663 
M881.784851,441.004639 
	C883.919678,438.996277 886.054504,436.987885 888.825928,434.680054 
	C889.571106,433.481110 890.739319,432.362457 890.984802,431.068665 
	C891.829773,426.616089 892.815613,422.111938 892.908691,417.610077 
	C893.165466,405.189148 892.997498,392.759430 892.997498,380.009003 
	C901.521790,380.009003 909.495728,379.731873 917.441406,380.086487 
	C925.482727,380.445374 932.633301,382.898132 934.484131,392.062927 
	C936.537537,402.230621 938.261658,412.467773 939.972778,422.700836 
	C941.995117,434.795166 949.055176,446.256104 963.927429,443.973846 
	C971.339050,442.836487 979.490051,437.633118 979.134033,427.252533 
	C978.677490,413.943024 979.173889,400.670532 976.168518,387.475281 
	C974.081848,378.313416 967.484924,365.919281 956.968689,364.867706 
	C955.336853,364.704559 953.798218,363.609192 951.863159,362.796478 
	C954.176575,361.975433 955.983887,361.453369 957.693787,360.707947 
	C969.491211,355.565094 977.767090,347.798187 980.171936,334.252502 
	C982.988159,318.389130 978.220337,301.687195 962.849854,293.996643 
	C950.634949,287.884979 937.486572,286.063446 923.058289,286.023224 
	C907.377869,286.075012 891.697510,286.126831 875.171021,286.013214 
	C870.484192,287.137909 865.455872,287.542480 861.194092,289.563446 
	C855.431824,292.295898 851.760925,297.291443 851.023071,304.941742 
	C851.066772,345.290222 851.110474,385.638702 851.213257,426.701935 
	C852.103210,428.480835 852.993164,430.259735 853.990906,432.775513 
	C855.716187,435.069458 857.154907,437.670410 859.221069,439.599121 
	C865.146667,445.130157 876.021973,445.713196 881.018982,441.026917 
	C881.018982,441.026917 881.058838,441.107788 881.784851,441.004639 
M831.706665,810.779236 
	C844.331177,807.204712 851.042114,798.095215 851.020569,784.661621 
	C850.944275,737.005249 850.991577,689.348694 850.981018,641.692200 
	C850.980713,640.245850 850.859070,638.799500 850.777161,636.979553 
	C845.002319,636.979553 839.518250,637.271667 834.081055,636.891724 
	C829.301270,636.557739 827.860107,638.081665 827.879944,642.988220 
	C828.067993,689.477600 827.941162,735.968140 828.091919,782.457764 
	C828.106262,786.880249 826.790222,788.086121 822.421021,788.083984 
	C620.297729,787.984680 418.174408,787.979858 216.051147,788.094055 
	C211.228790,788.096741 209.885391,786.776550 209.903168,781.947449 
	C210.077866,734.458191 210.010513,686.968079 210.011871,639.478210 
	C210.011917,637.720459 210.011887,635.962708 210.011887,634.986450 
	C201.902435,634.986450 194.485001,634.986450 187.001358,634.986450 
	C187.001358,686.468811 186.779266,736.958557 187.149292,787.443909 
	C187.248306,800.954468 196.803894,810.323486 210.940262,810.979065 
	C411.120056,810.985535 611.299805,810.993469 811.479614,810.991821 
	C817.971375,810.991760 824.463074,810.894287 831.706665,810.779236 
M209.209381,93.022011 
	C197.825317,94.902748 189.890015,100.222687 188.112900,111.802528 
	C187.019424,118.927704 187.064377,126.267494 187.049896,133.511826 
	C186.961594,177.676956 187.095245,221.842850 186.867798,266.007019 
	C186.843170,270.786255 188.639099,272.753296 192.804291,272.934113 
	C198.408035,273.177307 204.030258,272.994446 210.010452,272.994446 
	C210.010452,270.717834 210.010422,268.922028 210.010452,267.126190 
	C210.011230,218.627655 210.060562,170.128967 209.928619,121.630791 
	C209.916977,117.352493 210.965317,115.902260 215.484268,115.904594 
	C417.644745,116.008919 619.805298,116.008293 821.965759,115.889870 
	C826.823242,115.887032 828.111633,117.284180 828.094116,122.076942 
	C827.923767,168.741592 827.991516,215.407089 827.991638,262.072357 
	C827.991638,263.238983 827.605896,264.610321 828.087524,265.523590 
	C828.786499,266.849060 829.996277,268.666382 831.191711,268.835571 
	C836.069275,269.525757 841.028931,269.614288 845.949158,270.031982 
	C849.348572,270.320587 851.080078,269.528687 851.070312,265.472839 
	C850.950928,215.807953 851.160828,166.141739 850.881042,116.478157 
	C850.811157,104.079208 841.695496,94.484009 828.061035,93.026657 
	C645.025208,93.021820 461.989380,93.011345 278.953552,93.019241 
	C255.973602,93.020233 232.993637,93.118111 209.209381,93.022011 
M673.989563,390.585052 
	C676.566895,397.795776 678.098206,405.621368 681.910156,412.106323 
	C695.396179,435.048706 715.575317,447.179077 742.596497,447.017181 
	C749.094421,446.978241 755.643738,447.513092 762.075928,446.861511 
	C767.948120,446.266663 774.072266,445.277100 779.402039,442.917938 
	C786.510742,439.771423 793.012390,435.219513 799.678406,431.114746 
	C810.582153,424.400513 816.591064,413.373596 820.527649,402.252838 
	C826.004395,386.780914 828.567383,370.465485 826.184998,353.593323 
	C824.261353,339.970306 821.333679,326.983307 814.067810,315.122833 
	C806.942505,303.491608 797.025635,294.659332 784.914612,289.235199 
	C771.814819,283.368256 757.522888,282.365265 743.060974,282.854187 
	C728.249146,283.354889 714.661133,287.043335 702.438721,295.296417 
	C692.666016,301.895355 685.340149,310.784607 680.194153,321.386993 
	C675.479492,331.100555 673.143982,341.425934 671.816345,352.149139 
	C670.240845,364.874725 670.645081,377.341614 673.989563,390.585052 
M413.477356,438.006561 
	C416.026520,433.452728 418.163300,428.977997 418.104492,423.377136 
	C417.845520,398.713806 417.991821,374.046234 417.991302,349.380188 
	C417.991272,347.472687 417.991333,345.565186 417.991333,342.691467 
	C423.871918,350.665131 429.121552,357.747986 434.331543,364.859924 
	C437.836761,369.644745 441.255524,374.492920 444.766022,379.273773 
	C453.893890,391.704803 462.825806,404.289124 472.276123,416.470734 
	C478.533447,424.536469 484.966431,432.635406 492.379486,439.591187 
	C501.175201,447.844391 517.144775,445.475891 521.507141,433.805908 
	C523.521667,428.416656 524.796753,422.415894 524.841980,416.680023 
	C525.135193,379.516693 525.099426,342.349274 524.853210,305.185303 
	C524.826355,301.140289 523.445801,296.740662 521.495789,293.157013 
	C518.555664,287.753693 507.917542,284.194946 502.393250,286.250366 
	C494.227844,289.288300 488.980652,295.590363 488.990845,303.665161 
	C489.023193,329.331146 489.008270,354.997162 489.011536,380.663177 
	C489.011749,382.212402 489.011566,383.761597 489.011566,386.118011 
	C487.480682,384.351959 486.507751,383.395447 485.726013,382.302216 
	C477.316406,370.541779 469.065521,358.665405 460.510895,347.011810 
	C452.850861,336.576843 444.807617,326.424164 437.040649,316.066528 
	C430.157043,306.886902 423.932678,297.232788 414.647064,290.035950 
	C405.875275,283.237335 389.393890,285.022217 384.646851,297.100769 
	C382.894806,301.558807 381.994812,305.670013 381.994629,310.227417 
	C381.993164,349.059662 381.985870,387.891907 382.002411,426.724152 
	C382.005615,434.269135 387.105774,440.798981 394.750671,443.300720 
	C400.727997,445.256805 408.483582,443.850525 413.477356,438.006561 
M201.009293,544.530396 
	C201.376358,551.441284 201.005630,558.491028 202.274780,565.232056 
	C204.451355,576.792908 208.448807,587.850586 216.045807,597.148438 
	C222.297852,604.800110 229.745529,610.924500 238.884125,615.084229 
	C251.640884,620.890991 265.036194,621.452087 278.663025,621.012878 
	C293.901398,620.521606 307.057220,615.287964 319.080780,605.700989 
	C333.388214,594.292969 339.852692,578.600586 341.499542,561.852905 
	C343.187164,544.690125 343.723724,527.081238 336.286774,510.131439 
	C329.428711,494.501099 319.073639,482.892273 303.666565,476.514832 
	C292.235199,471.783020 280.008209,469.852509 267.289978,470.839111 
	C254.008942,471.869354 241.098694,473.743805 230.366928,482.097473 
	C224.077225,486.993439 217.665680,492.402222 213.253433,498.900574 
	C204.237961,512.178650 201.146759,527.584229 201.009293,544.530396 
M338.951691,362.798035 
	C336.002045,355.625702 333.015503,348.468292 330.111023,341.277740 
	C325.242340,329.224487 320.951050,316.902557 315.417145,305.164948 
	C311.186005,296.190521 304.589874,289.238556 293.998657,286.822021 
	C282.147095,284.117950 267.505890,287.709106 261.029297,298.239349 
	C256.992004,304.803558 253.324112,311.653656 250.143875,318.671539 
	C246.097977,327.599670 242.508820,336.751434 239.093582,345.944550 
	C234.549591,358.176117 230.461563,370.576294 225.995621,382.837738 
	C221.402969,395.446960 216.418304,407.915344 211.952057,420.567780 
	C209.865448,426.478912 210.253555,432.125031 214.676041,437.483887 
	C222.145950,446.535339 239.886246,446.682831 244.989502,436.494843 
	C248.508453,429.469696 250.991226,421.928864 254.019348,414.652679 
	C255.060150,412.151764 255.022675,408.907959 259.331085,408.949310 
	C276.827789,409.117188 294.327850,408.944580 311.824280,409.127167 
	C313.339447,409.142975 315.590851,410.486969 316.213593,411.816620 
	C319.050781,417.874878 321.446838,424.140961 323.965515,430.346863 
	C327.126038,438.134277 333.215179,445.449738 345.122955,444.071533 
	C352.502197,443.217468 362.289337,436.082825 360.923584,427.548431 
	C360.117035,422.508423 358.633575,417.526001 356.968719,412.684784 
	C353.664398,403.076324 350.026672,393.582458 346.521301,384.043243 
	C344.016449,377.226685 341.502747,370.413361 338.951691,362.798035 
M839.923950,479.401764 
	C836.784668,478.270477 833.713318,476.864777 830.491455,476.067413 
	C824.564941,474.600739 818.594238,473.184235 812.560303,472.312561 
	C805.133728,471.239807 797.496948,469.521545 790.178101,470.278229 
	C778.128662,471.523987 766.020264,472.798401 754.753052,478.755127 
	C745.529968,483.631195 737.678772,489.578217 731.653442,497.897552 
	C725.459900,506.449188 721.874939,516.008423 719.562866,526.450745 
	C716.672607,539.504395 716.594055,552.238342 718.967102,565.232056 
	C721.363342,578.353027 725.887451,590.538635 735.119568,600.357605 
	C747.615723,613.647949 763.724304,619.664856 781.506836,620.869995 
	C795.953369,621.848938 810.340271,620.650513 824.715088,618.150879 
	C843.078979,614.957703 851.121033,609.878418 851.890198,592.307068 
	C852.450745,579.501099 852.173035,566.647827 851.942688,553.821472 
	C851.772522,544.348755 848.078125,539.259644 840.936157,539.095703 
	C826.946594,538.774658 812.941101,538.822205 798.949280,539.087769 
	C793.165588,539.197510 787.638733,544.998718 787.093567,550.496887 
	C786.658203,554.888428 791.033569,559.880859 797.234436,560.943298 
	C802.984619,561.928589 808.888245,562.018433 815.013245,562.526611 
	C815.013245,567.469666 815.013245,572.438477 815.013245,577.407288 
	C815.013245,582.519348 815.013245,587.631409 815.013245,592.664917 
	C809.454651,593.141663 804.404846,593.875671 799.348511,593.924072 
	C794.272217,593.972595 789.189697,593.061829 784.109436,593.057129 
	C771.392944,593.045288 762.434082,582.331970 759.854187,571.330200 
	C756.931580,558.867432 756.059937,546.434814 758.078552,533.877869 
	C759.424622,525.504395 760.937378,516.560852 766.669312,510.265289 
	C776.698242,499.250305 789.786438,495.594757 804.519104,498.894928 
	C813.294189,500.860535 822.023254,503.036224 830.815430,504.919220 
	C834.552795,505.719666 843.108643,503.482758 845.084900,500.293945 
	C849.964233,492.420807 848.948853,486.945099 839.923950,479.401764 
M148.160461,447.012543 
	C158.166031,443.998138 168.615326,441.952576 178.027252,437.641998 
	C184.735031,434.569855 191.073410,429.401855 190.140762,419.793182 
	C189.418274,412.349823 182.332764,406.424133 175.080566,408.481476 
	C165.621429,411.164856 156.319168,414.424988 146.810730,416.905304 
	C133.196091,420.456787 118.743919,416.222900 109.933678,404.021454 
	C102.151039,393.243134 100.697441,380.846191 100.164757,368.377716 
	C99.633865,355.951172 100.904449,343.539612 105.981544,331.876190 
	C109.508095,323.774811 115.120827,317.195343 123.417847,314.456635 
	C135.347443,310.518860 147.556107,312.653961 159.584686,315.246338 
	C164.640762,316.335999 169.739822,317.523407 174.871307,317.849945 
	C177.761353,318.033844 181.456543,317.408295 183.577362,315.669495 
	C190.618866,309.896423 192.017746,303.150513 184.853790,295.320801 
	C177.734207,287.539642 167.968674,285.649933 158.436569,284.223053 
	C149.506607,282.886292 140.311554,283.160858 131.228912,283.037018 
	C112.236595,282.778076 95.880844,289.625000 81.723587,302.032684 
	C72.424530,310.182556 65.908081,320.553833 62.317665,332.026733 
	C57.472218,347.510010 55.471565,363.554535 57.868855,380.004578 
	C59.893620,393.898346 63.571125,407.156281 72.049904,418.345337 
	C86.032860,436.798035 104.468170,447.316071 128.231186,447.032013 
	C134.561249,446.956329 140.892883,447.011536 148.160461,447.012543 
M674.499084,591.001099 
	C663.173279,591.001587 651.845825,591.096252 640.523743,590.890503 
	C639.005737,590.862976 636.235168,589.357239 636.208008,588.469727 
	C635.899475,578.388062 636.012146,568.293518 636.012146,557.998718 
	C652.214600,557.998718 667.849670,558.018372 683.484558,557.988464 
	C689.220154,557.977478 692.751038,554.409119 694.948792,549.760010 
	C696.692993,546.070435 696.727173,542.266541 694.194824,538.289856 
	C690.671692,532.757202 685.527222,531.166443 679.751465,531.081116 
	C665.308044,530.867798 650.859375,531.010742 636.351929,531.010742 
	C636.351929,520.780029 636.351929,510.925201 636.351929,501.000092 
	C653.701965,501.000092 670.688110,501.046417 687.673279,500.932220 
	C689.478210,500.920074 691.510437,500.341583 693.037903,499.386871 
	C699.557556,495.311829 701.541260,489.920715 699.765747,483.294067 
	C698.393066,478.170807 690.960632,473.836395 685.246338,473.902863 
	C664.096741,474.148834 642.941101,473.870026 621.791443,474.116241 
	C617.523987,474.165894 612.822754,474.789917 609.148499,476.721985 
	C605.845398,478.458954 602.412048,481.947876 601.300415,485.394348 
	C599.540283,490.851349 599.132019,496.914154 599.091003,502.727203 
	C598.890137,531.206665 598.890259,559.689087 599.091003,588.168518 
	C599.131958,593.978027 599.781494,599.914856 601.150269,605.550110 
	C602.855408,612.570129 608.028015,617.840698 615.279541,617.909607 
	C640.093933,618.145386 664.912048,618.035217 689.728577,617.976501 
	C696.335144,617.960815 701.472473,611.763794 702.144043,604.893494 
	C702.760010,598.591431 695.787354,590.706360 689.986694,590.957642 
	C685.165649,591.166504 680.328308,591.000732 674.499084,591.001099 
M950.499451,501.000153 
	C955.497986,501.000122 960.496460,501.008392 965.494995,500.998016 
	C972.639587,500.983215 978.498535,495.455536 979.094238,489.231873 
	C980.129089,478.421204 972.475098,474.231750 965.930298,474.137451 
	C942.941772,473.806152 919.944946,473.892090 896.952881,474.053223 
	C887.352356,474.120514 879.040100,481.846283 879.026367,490.406433 
	C878.966736,527.562073 878.951660,564.717957 879.051208,601.873474 
	C879.069702,608.785828 888.291321,618.343323 895.537415,618.190674 
	C919.519653,617.685608 943.519470,617.951355 967.512085,618.029480 
	C974.833557,618.053284 981.076172,611.928467 980.951172,604.590576 
	C980.826904,597.292297 975.976135,590.929993 967.275818,590.976379 
	C951.114319,591.062622 934.952148,591.008118 918.790222,590.987854 
	C917.537292,590.986267 916.284668,590.794128 915.000122,590.687927 
	C915.000122,581.112427 915.151672,571.946106 914.926392,562.789124 
	C914.834839,559.069702 916.030151,557.867798 919.762390,557.917114 
	C933.589233,558.099854 947.419922,557.995667 961.249146,557.995789 
	C968.183411,557.995850 974.142578,553.376770 974.990723,547.353088 
	C975.980225,540.325439 972.124268,534.143005 965.155640,532.044983 
	C962.868286,531.356323 960.381104,531.070312 957.982483,531.055420 
	C943.724548,530.966736 929.465698,531.011597 915.288086,531.011597 
	C915.288086,520.688599 915.288086,510.949738 915.288086,501.000153 
	C926.883179,501.000153 938.191467,501.000153 950.499451,501.000153 
M74.008263,598.515564 
	C76.626808,601.133789 79.126305,603.885498 81.885689,606.345764 
	C91.048195,614.514832 102.198883,619.415222 113.979034,620.630249 
	C125.285431,621.796326 137.059479,622.523926 148.362823,618.993408 
	C158.349457,615.874207 168.981613,614.146118 176.033661,605.036621 
	C178.966507,601.248108 179.963226,595.293335 177.631393,591.125854 
	C175.360672,587.067566 169.263687,584.443726 164.715500,585.702881 
	C155.481903,588.259338 146.373489,591.382446 137.021133,593.364197 
	C127.060860,595.474792 117.588173,593.609375 109.880997,586.342041 
	C102.083984,578.990051 98.844658,569.721069 97.840317,559.116394 
	C96.487244,544.829346 96.023842,530.773987 101.003922,517.017395 
	C104.752121,506.663605 115.526314,498.685730 125.990234,497.921204 
	C136.139343,497.179718 145.683090,499.804688 155.389206,501.909210 
	C159.184555,502.732117 163.223282,503.214386 167.063217,502.870300 
	C173.127045,502.326904 178.456573,496.680267 178.125305,490.556458 
	C177.808212,484.694763 173.788818,481.938934 169.933060,479.055634 
	C163.552612,474.284332 155.830597,473.091675 148.201538,472.055786 
	C141.410507,471.133698 134.437103,469.554749 127.761040,470.275208 
	C118.730095,471.249786 109.631172,472.223633 100.851440,475.756134 
	C90.508568,479.917572 81.046448,485.111847 74.142456,493.727997 
	C62.089115,508.770477 57.125004,526.503723 57.111919,545.576294 
	C57.107582,551.898499 58.381565,558.216980 58.990101,564.544983 
	C60.213947,577.271484 65.532394,588.204651 74.008263,598.515564 
M493.952179,616.995361 
	C495.844330,617.330261 497.735626,617.950928 499.628754,617.956543 
	C522.271362,618.023987 544.921875,617.663208 567.552795,618.180420 
	C575.610840,618.364624 582.343506,610.344543 582.067200,603.977295 
	C581.736511,596.356628 575.468933,590.008118 567.637878,590.010803 
	C551.873779,590.016296 536.109680,590.012390 520.000061,590.012390 
	C520.000061,587.943054 520.000061,586.316528 520.000061,584.689941 
	C520.000061,554.222107 519.939087,523.754089 520.031189,493.286499 
	C520.066162,481.724030 511.197662,474.279999 501.433990,473.975494 
	C490.604156,473.637756 481.934540,482.516266 481.965515,493.406769 
	C482.060150,526.704651 482.058014,560.003235 481.963745,593.301086 
	C481.936249,603.009216 484.966827,611.048035 493.952179,616.995361 
M365.017853,596.211426 
	C365.677582,599.016174 366.474609,601.796814 366.970428,604.630249 
	C368.277740,612.101624 375.053253,617.994690 382.557617,617.997437 
	C404.868378,618.005554 427.182129,617.806274 449.487640,618.148376 
	C454.533936,618.225769 458.014709,616.464417 461.327057,613.213684 
	C465.342102,609.273193 466.038574,600.277405 462.425812,595.934692 
	C459.245361,592.111633 455.323334,589.914917 450.085632,589.961975 
	C434.493744,590.101929 418.899811,590.012146 402.999390,590.012146 
	C402.999390,588.065613 402.999420,586.600769 402.999390,585.135864 
	C402.998749,555.166260 403.088257,525.196045 402.877045,495.227875 
	C402.852203,491.705933 401.489532,488.074860 400.201599,484.702728 
	C396.367676,474.664673 386.719727,472.718384 379.544769,474.278229 
	C371.426422,476.043152 364.856262,484.547791 364.913910,493.372162 
	C365.135773,527.336304 365.010590,561.302795 365.017853,596.211426 
z"/>
<path fill="#F2A903" opacity="1.000000" stroke="none" 
	d="
M828.986511,93.171982 
	C841.695496,94.484009 850.811157,104.079208 850.881042,116.478157 
	C851.160828,166.141739 850.950928,215.807953 851.070312,265.472839 
	C851.080078,269.528687 849.348572,270.320587 845.949158,270.031982 
	C841.028931,269.614288 836.069275,269.525757 831.191711,268.835571 
	C829.996277,268.666382 828.786499,266.849060 828.087524,265.523590 
	C827.605896,264.610321 827.991638,263.238983 827.991638,262.072357 
	C827.991516,215.407089 827.923767,168.741592 828.094116,122.076942 
	C828.111633,117.284180 826.823242,115.887032 821.965759,115.889870 
	C619.805298,116.008293 417.644745,116.008919 215.484268,115.904594 
	C210.965317,115.902260 209.916977,117.352493 209.928619,121.630791 
	C210.060562,170.128967 210.011230,218.627655 210.010452,267.126190 
	C210.010422,268.922028 210.010452,270.717834 210.010452,272.994446 
	C204.030258,272.994446 198.408035,273.177307 192.804291,272.934113 
	C188.639099,272.753296 186.843170,270.786255 186.867798,266.007019 
	C187.095245,221.842850 186.961594,177.676956 187.049896,133.511826 
	C187.064377,126.267494 187.019424,118.927704 188.112900,111.802528 
	C189.890015,100.222687 197.825317,94.902748 209.714447,93.480164 
	C212.248489,94.293121 214.277374,94.958191 216.306442,94.958664 
	C418.364868,95.005806 620.423279,95.002724 822.481750,95.001083 
	C823.980591,95.001068 825.517639,95.171844 826.962646,94.886749 
	C827.720520,94.737236 828.317078,93.769958 828.986511,93.171982 
z"/>
<path fill="#F2A903" opacity="1.000000" stroke="none" 
	d="
M210.014130,810.838989 
	C196.803894,810.323486 187.248306,800.954468 187.149292,787.443909 
	C186.779266,736.958557 187.001358,686.468811 187.001358,634.986450 
	C194.485001,634.986450 201.902435,634.986450 210.011887,634.986450 
	C210.011887,635.962708 210.011917,637.720459 210.011871,639.478210 
	C210.010513,686.968079 210.077866,734.458191 209.903168,781.947449 
	C209.885391,786.776550 211.228790,788.096741 216.051147,788.094055 
	C418.174408,787.979858 620.297729,787.984680 822.421021,788.083984 
	C826.790222,788.086121 828.106262,786.880249 828.091919,782.457764 
	C827.941162,735.968140 828.067993,689.477600 827.879944,642.988220 
	C827.860107,638.081665 829.301270,636.557739 834.081055,636.891724 
	C839.518250,637.271667 845.002319,636.979553 850.777161,636.979553 
	C850.859070,638.799500 850.980713,640.245850 850.981018,641.692200 
	C850.991577,689.348694 850.944275,737.005249 851.020569,784.661621 
	C851.042114,798.095215 844.331177,807.204712 831.073730,810.533691 
	C827.865662,809.857971 825.290771,809.051819 822.715576,809.051086 
	C623.976929,808.993469 425.238342,808.999146 226.499710,808.999939 
	C222.335037,808.999939 218.162048,808.850464 214.010422,809.082886 
	C212.649826,809.159119 211.344650,810.225403 210.014130,810.838989 
z"/>
<path fill="#F3A903" opacity="1.000000" stroke="none" 
	d="
M673.955933,390.153992 
	C670.645081,377.341614 670.240845,364.874725 671.816345,352.149139 
	C673.143982,341.425934 675.479492,331.100555 680.194153,321.386993 
	C685.340149,310.784607 692.666016,301.895355 702.438721,295.296417 
	C714.661133,287.043335 728.249146,283.354889 743.060974,282.854187 
	C757.522888,282.365265 771.814819,283.368256 784.914612,289.235199 
	C797.025635,294.659332 806.942505,303.491608 814.067810,315.122833 
	C821.333679,326.983307 824.261353,339.970306 826.184998,353.593323 
	C828.567383,370.465485 826.004395,386.780914 820.527649,402.252838 
	C816.591064,413.373596 810.582153,424.400513 799.678406,431.114746 
	C793.012390,435.219513 786.510742,439.771423 779.402039,442.917938 
	C774.072266,445.277100 767.948120,446.266663 762.075928,446.861511 
	C755.643738,447.513092 749.094421,446.978241 742.596497,447.017181 
	C715.575317,447.179077 695.396179,435.048706 681.910156,412.106323 
	C678.098206,405.621368 676.566895,397.795776 673.955933,390.153992 
M767.937012,318.423706 
	C760.030884,312.488647 751.049377,311.518768 741.703186,313.179779 
	C732.816650,314.759033 726.439209,320.012970 722.015442,327.806183 
	C716.983276,336.671356 715.535156,346.566223 715.219971,356.354401 
	C714.888062,366.664246 715.651611,377.132263 717.166077,387.348969 
	C719.279297,401.605408 725.253845,413.400818 741.064697,417.098969 
	C753.631897,420.038422 768.117615,415.910583 775.232849,403.440704 
	C781.068420,393.213379 782.066956,381.864624 782.772705,370.658478 
	C783.282715,362.559052 781.546997,354.333679 781.034729,346.150574 
	C780.362305,335.411438 776.224670,326.360962 767.937012,318.423706 
z"/>
<path fill="#F2A903" opacity="1.000000" stroke="none" 
	d="
M413.092651,438.052826 
	C408.483582,443.850525 400.727997,445.256805 394.750671,443.300720 
	C387.105774,440.798981 382.005615,434.269135 382.002411,426.724152 
	C381.985870,387.891907 381.993164,349.059662 381.994629,310.227417 
	C381.994812,305.670013 382.894806,301.558807 384.646851,297.100769 
	C389.393890,285.022217 405.875275,283.237335 414.647064,290.035950 
	C423.932678,297.232788 430.157043,306.886902 437.040649,316.066528 
	C444.807617,326.424164 452.850861,336.576843 460.510895,347.011810 
	C469.065521,358.665405 477.316406,370.541779 485.726013,382.302216 
	C486.507751,383.395447 487.480682,384.351959 489.011566,386.118011 
	C489.011566,383.761597 489.011749,382.212402 489.011536,380.663177 
	C489.008270,354.997162 489.023193,329.331146 488.990845,303.665161 
	C488.980652,295.590363 494.227844,289.288300 502.393250,286.250366 
	C507.917542,284.194946 518.555664,287.753693 521.495789,293.157013 
	C523.445801,296.740662 524.826355,301.140289 524.853210,305.185303 
	C525.099426,342.349274 525.135193,379.516693 524.841980,416.680023 
	C524.796753,422.415894 523.521667,428.416656 521.507141,433.805908 
	C517.144775,445.475891 501.175201,447.844391 492.379486,439.591187 
	C484.966431,432.635406 478.533447,424.536469 472.276123,416.470734 
	C462.825806,404.289124 453.893890,391.704803 444.766022,379.273773 
	C441.255524,374.492920 437.836761,369.644745 434.331543,364.859924 
	C429.121552,357.747986 423.871918,350.665131 417.991333,342.691467 
	C417.991333,345.565186 417.991272,347.472687 417.991302,349.380188 
	C417.991821,374.046234 417.845520,398.713806 418.104492,423.377136 
	C418.163300,428.977997 416.026520,433.452728 413.092651,438.052826 
z"/>
<path fill="#F2A903" opacity="1.000000" stroke="none" 
	d="
M851.163940,304.016174 
	C851.760925,297.291443 855.431824,292.295898 861.194092,289.563446 
	C865.455872,287.542480 870.484192,287.137909 875.696655,286.479065 
	C876.914917,287.292847 877.606323,287.941437 878.300476,287.944458 
	C892.540833,288.006256 906.781738,288.031097 921.021423,287.918030 
	C922.013794,287.910126 922.997314,286.770447 923.984985,286.157104 
	C937.486572,286.063446 950.634949,287.884979 962.849854,293.996643 
	C978.220337,301.687195 982.988159,318.389130 980.171936,334.252502 
	C977.767090,347.798187 969.491211,355.565094 957.693787,360.707947 
	C955.983887,361.453369 954.176575,361.975433 951.863159,362.796478 
	C953.798218,363.609192 955.336853,364.704559 956.968689,364.867706 
	C967.484924,365.919281 974.081848,378.313416 976.168518,387.475281 
	C979.173889,400.670532 978.677490,413.943024 979.134033,427.252533 
	C979.490051,437.633118 971.339050,442.836487 963.927429,443.973846 
	C949.055176,446.256104 941.995117,434.795166 939.972778,422.700836 
	C938.261658,412.467773 936.537537,402.230621 934.484131,392.062927 
	C932.633301,382.898132 925.482727,380.445374 917.441406,380.086487 
	C909.495728,379.731873 901.521790,380.009003 892.997498,380.009003 
	C892.997498,392.759430 893.165466,405.189148 892.908691,417.610077 
	C892.815613,422.111938 891.829773,426.616089 890.984802,431.068665 
	C890.739319,432.362457 889.571106,433.481110 888.144409,434.861694 
	C885.328247,437.064819 883.193542,439.086304 881.058838,441.107788 
	C881.058838,441.107788 881.018982,441.026917 880.626587,441.026367 
	C879.261108,441.141479 878.268433,441.170471 877.318237,441.386658 
	C869.871948,443.081238 863.346863,441.851959 858.169556,435.733978 
	C856.965942,434.311646 855.323547,433.260590 853.883057,432.038666 
	C852.993164,430.259735 852.103210,428.480835 851.568726,426.243896 
	C852.282898,424.594177 852.953247,423.402924 852.954956,422.210693 
	C853.009888,384.140167 853.018677,346.069550 852.922729,307.999207 
	C852.919373,306.670044 851.776001,305.343781 851.163940,304.016174 
M909.327148,353.020142 
	C912.423340,352.672791 915.526123,351.980377 918.614563,352.039429 
	C930.342102,352.263641 941.828918,343.328461 940.177673,330.619904 
	C939.148865,322.701965 934.629089,315.107117 926.846619,314.157379 
	C916.414429,312.884277 905.855164,312.585022 895.338501,312.174133 
	C894.268555,312.132324 892.168274,314.171478 892.147949,315.274445 
	C891.918701,327.718597 892.002747,340.168579 892.002747,353.020874 
	C897.774292,353.020874 903.067993,353.020874 909.327148,353.020142 
z"/>
<path fill="#FFFFFF" opacity="1.000000" stroke="black" 
	d="
M201.009399,544.044861 
	C201.146759,527.584229 204.237961,512.178650 213.253433,498.900574 
	C217.665680,492.402222 224.077225,486.993439 230.366928,482.097473 
	C241.098694,473.743805 254.008942,471.869354 267.289978,470.839111 
	C280.008209,469.852509 292.235199,471.783020 303.666565,476.514832 
	C319.073639,482.892273 329.428711,494.501099 336.286774,510.131439 
	C343.723724,527.081238 343.187164,544.690125 341.499542,561.852905 
	C339.852692,578.600586 333.388214,594.292969 319.080780,605.700989 
	C307.057220,615.287964 293.901398,620.521606 278.663025,621.012878 
	C265.036194,621.452087 251.640884,620.890991 238.884125,615.084229 
	C229.745529,610.924500 222.297852,604.800110 216.045807,597.148438 
	C208.448807,587.850586 204.451355,576.792908 202.274780,565.232056 
	C201.005630,558.491028 201.376358,551.441284 201.009399,544.044861 
M242.020752,564.986145 
	C242.350525,565.883911 242.691666,566.777649 243.008179,567.680054 
	C244.746368,572.635803 245.540222,578.236023 248.404404,582.419556 
	C254.734299,591.665161 264.234222,595.251282 275.378296,593.972290 
	C282.676544,593.134705 289.687531,590.726074 293.654327,584.359558 
	C296.597900,579.635254 299.092651,574.592773 300.465302,568.687744 
	C303.843811,554.153748 304.076050,539.898071 300.968994,525.476868 
	C298.504181,514.036621 294.124512,503.550812 281.936371,499.547333 
	C265.460571,494.135498 251.085648,501.035889 245.135239,517.004639 
	C241.529587,526.680847 240.824615,537.027588 241.027359,547.336487 
	C241.137253,552.924500 241.663193,558.504333 242.020752,564.986145 
z"/>
<path fill="#F3AA03" opacity="1.000000" stroke="none" 
	d="
M338.972351,363.198303 
	C341.502747,370.413361 344.016449,377.226685 346.521301,384.043243 
	C350.026672,393.582458 353.664398,403.076324 356.968719,412.684784 
	C358.633575,417.526001 360.117035,422.508423 360.923584,427.548431 
	C362.289337,436.082825 352.502197,443.217468 345.122955,444.071533 
	C333.215179,445.449738 327.126038,438.134277 323.965515,430.346863 
	C321.446838,424.140961 319.050781,417.874878 316.213593,411.816620 
	C315.590851,410.486969 313.339447,409.142975 311.824280,409.127167 
	C294.327850,408.944580 276.827789,409.117188 259.331085,408.949310 
	C255.022675,408.907959 255.060150,412.151764 254.019348,414.652679 
	C250.991226,421.928864 248.508453,429.469696 244.989502,436.494843 
	C239.886246,446.682831 222.145950,446.535339 214.676041,437.483887 
	C210.253555,432.125031 209.865448,426.478912 211.952057,420.567780 
	C216.418304,407.915344 221.402969,395.446960 225.995621,382.837738 
	C230.461563,370.576294 234.549591,358.176117 239.093582,345.944550 
	C242.508820,336.751434 246.097977,327.599670 250.143875,318.671539 
	C253.324112,311.653656 256.992004,304.803558 261.029297,298.239349 
	C267.505890,287.709106 282.147095,284.117950 293.998657,286.822021 
	C304.589874,289.238556 311.186005,296.190521 315.417145,305.164948 
	C320.951050,316.902557 325.242340,329.224487 330.111023,341.277740 
	C333.015503,348.468292 336.002045,355.625702 338.972351,363.198303 
M306.928040,380.609528 
	C299.940857,360.133820 292.953644,339.658112 285.711609,318.435547 
	C278.216095,340.646118 270.996826,362.038055 263.652710,383.799896 
	C278.636719,383.799896 293.054901,383.799896 307.475250,383.812469 
	C307.313660,383.015564 307.152069,382.218689 306.928040,380.609528 
z"/>
<path fill="#FFFFFF" opacity="1.000000" stroke="black" 
	d="
M840.212769,479.677490 
	C848.948853,486.945099 849.964233,492.420807 845.084900,500.293945 
	C843.108643,503.482758 834.552795,505.719666 830.815430,504.919220 
	C822.023254,503.036224 813.294189,500.860535 804.519104,498.894928 
	C789.786438,495.594757 776.698242,499.250305 766.669312,510.265289 
	C760.937378,516.560852 759.424622,525.504395 758.078552,533.877869 
	C756.059937,546.434814 756.931580,558.867432 759.854187,571.330200 
	C762.434082,582.331970 771.392944,593.045288 784.109436,593.057129 
	C789.189697,593.061829 794.272217,593.972595 799.348511,593.924072 
	C804.404846,593.875671 809.454651,593.141663 815.013245,592.664917 
	C815.013245,587.631409 815.013245,582.519348 815.013245,577.407288 
	C815.013245,572.438477 815.013245,567.469666 815.013245,562.526611 
	C808.888245,562.018433 802.984619,561.928589 797.234436,560.943298 
	C791.033569,559.880859 786.658203,554.888428 787.093567,550.496887 
	C787.638733,544.998718 793.165588,539.197510 798.949280,539.087769 
	C812.941101,538.822205 826.946594,538.774658 840.936157,539.095703 
	C848.078125,539.259644 851.772522,544.348755 851.942688,553.821472 
	C852.173035,566.647827 852.450745,579.501099 851.890198,592.307068 
	C851.121033,609.878418 843.078979,614.957703 824.715088,618.150879 
	C810.340271,620.650513 795.953369,621.848938 781.506836,620.869995 
	C763.724304,619.664856 747.615723,613.647949 735.119568,600.357605 
	C725.887451,590.538635 721.363342,578.353027 718.967102,565.232056 
	C716.594055,552.238342 716.672607,539.504395 719.562866,526.450745 
	C721.874939,516.008423 725.459900,506.449188 731.653442,497.897552 
	C737.678772,489.578217 745.529968,483.631195 754.753052,478.755127 
	C766.020264,472.798401 778.128662,471.523987 790.178101,470.278229 
	C797.496948,469.521545 805.133728,471.239807 812.560303,472.312561 
	C818.594238,473.184235 824.564941,474.600739 830.491455,476.067413 
	C833.713318,476.864777 836.784668,478.270477 840.212769,479.677490 
z"/>
<path fill="#F3A903" opacity="1.000000" stroke="none" 
	d="
M147.692123,447.009583 
	C140.892883,447.011536 134.561249,446.956329 128.231186,447.032013 
	C104.468170,447.316071 86.032860,436.798035 72.049904,418.345337 
	C63.571125,407.156281 59.893620,393.898346 57.868855,380.004578 
	C55.471565,363.554535 57.472218,347.510010 62.317665,332.026733 
	C65.908081,320.553833 72.424530,310.182556 81.723587,302.032684 
	C95.880844,289.625000 112.236595,282.778076 131.228912,283.037018 
	C140.311554,283.160858 149.506607,282.886292 158.436569,284.223053 
	C167.968674,285.649933 177.734207,287.539642 184.853790,295.320801 
	C192.017746,303.150513 190.618866,309.896423 183.577362,315.669495 
	C181.456543,317.408295 177.761353,318.033844 174.871307,317.849945 
	C169.739822,317.523407 164.640762,316.335999 159.584686,315.246338 
	C147.556107,312.653961 135.347443,310.518860 123.417847,314.456635 
	C115.120827,317.195343 109.508095,323.774811 105.981544,331.876190 
	C100.904449,343.539612 99.633865,355.951172 100.164757,368.377716 
	C100.697441,380.846191 102.151039,393.243134 109.933678,404.021454 
	C118.743919,416.222900 133.196091,420.456787 146.810730,416.905304 
	C156.319168,414.424988 165.621429,411.164856 175.080566,408.481476 
	C182.332764,406.424133 189.418274,412.349823 190.140762,419.793182 
	C191.073410,429.401855 184.735031,434.569855 178.027252,437.641998 
	C168.615326,441.952576 158.166031,443.998138 147.692123,447.009583 
z"/>
<path fill="#FFFFFF" opacity="1.000000" stroke="black" 
	d="
M674.998657,591.000977 
	C680.328308,591.000732 685.165649,591.166504 689.986694,590.957642 
	C695.787354,590.706360 702.760010,598.591431 702.144043,604.893494 
	C701.472473,611.763794 696.335144,617.960815 689.728577,617.976501 
	C664.912048,618.035217 640.093933,618.145386 615.279541,617.909607 
	C608.028015,617.840698 602.855408,612.570129 601.150269,605.550110 
	C599.781494,599.914856 599.131958,593.978027 599.091003,588.168518 
	C598.890259,559.689087 598.890137,531.206665 599.091003,502.727203 
	C599.132019,496.914154 599.540283,490.851349 601.300415,485.394348 
	C602.412048,481.947876 605.845398,478.458954 609.148499,476.721985 
	C612.822754,474.789917 617.523987,474.165894 621.791443,474.116241 
	C642.941101,473.870026 664.096741,474.148834 685.246338,473.902863 
	C690.960632,473.836395 698.393066,478.170807 699.765747,483.294067 
	C701.541260,489.920715 699.557556,495.311829 693.037903,499.386871 
	C691.510437,500.341583 689.478210,500.920074 687.673279,500.932220 
	C670.688110,501.046417 653.701965,501.000092 636.351929,501.000092 
	C636.351929,510.925201 636.351929,520.780029 636.351929,531.010742 
	C650.859375,531.010742 665.308044,530.867798 679.751465,531.081116 
	C685.527222,531.166443 690.671692,532.757202 694.194824,538.289856 
	C696.727173,542.266541 696.692993,546.070435 694.948792,549.760010 
	C692.751038,554.409119 689.220154,557.977478 683.484558,557.988464 
	C667.849670,558.018372 652.214600,557.998718 636.012146,557.998718 
	C636.012146,568.293518 635.899475,578.388062 636.208008,588.469727 
	C636.235168,589.357239 639.005737,590.862976 640.523743,590.890503 
	C651.845825,591.096252 663.173279,591.001587 674.998657,591.000977 
z"/>
<path fill="#FFFFFF" opacity="1.000000" stroke="black" 
	d="
M949.999634,501.000153 
	C938.191467,501.000153 926.883179,501.000153 915.288086,501.000153 
	C915.288086,510.949738 915.288086,520.688599 915.288086,531.011597 
	C929.465698,531.011597 943.724548,530.966736 957.982483,531.055420 
	C960.381104,531.070312 962.868286,531.356323 965.155640,532.044983 
	C972.124268,534.143005 975.980225,540.325439 974.990723,547.353088 
	C974.142578,553.376770 968.183411,557.995850 961.249146,557.995789 
	C947.419922,557.995667 933.589233,558.099854 919.762390,557.917114 
	C916.030151,557.867798 914.834839,559.069702 914.926392,562.789124 
	C915.151672,571.946106 915.000122,581.112427 915.000122,590.687927 
	C916.284668,590.794128 917.537292,590.986267 918.790222,590.987854 
	C934.952148,591.008118 951.114319,591.062622 967.275818,590.976379 
	C975.976135,590.929993 980.826904,597.292297 980.951172,604.590576 
	C981.076172,611.928467 974.833557,618.053284 967.512085,618.029480 
	C943.519470,617.951355 919.519653,617.685608 895.537415,618.190674 
	C888.291321,618.343323 879.069702,608.785828 879.051208,601.873474 
	C878.951660,564.717957 878.966736,527.562073 879.026367,490.406433 
	C879.040100,481.846283 887.352356,474.120514 896.952881,474.053223 
	C919.944946,473.892090 942.941772,473.806152 965.930298,474.137451 
	C972.475098,474.231750 980.129089,478.421204 979.094238,489.231873 
	C978.498535,495.455536 972.639587,500.983215 965.494995,500.998016 
	C960.496460,501.008392 955.497986,501.000122 949.999634,501.000153 
z"/>
<path fill="#FFFFFF" opacity="1.000000" stroke="black" 
	d="
M73.753036,598.257080 
	C65.532394,588.204651 60.213947,577.271484 58.990101,564.544983 
	C58.381565,558.216980 57.107582,551.898499 57.111919,545.576294 
	C57.125004,526.503723 62.089115,508.770477 74.142456,493.727997 
	C81.046448,485.111847 90.508568,479.917572 100.851440,475.756134 
	C109.631172,472.223633 118.730095,471.249786 127.761040,470.275208 
	C134.437103,469.554749 141.410507,471.133698 148.201538,472.055786 
	C155.830597,473.091675 163.552612,474.284332 169.933060,479.055634 
	C173.788818,481.938934 177.808212,484.694763 178.125305,490.556458 
	C178.456573,496.680267 173.127045,502.326904 167.063217,502.870300 
	C163.223282,503.214386 159.184555,502.732117 155.389206,501.909210 
	C145.683090,499.804688 136.139343,497.179718 125.990234,497.921204 
	C115.526314,498.685730 104.752121,506.663605 101.003922,517.017395 
	C96.023842,530.773987 96.487244,544.829346 97.840317,559.116394 
	C98.844658,569.721069 102.083984,578.990051 109.880997,586.342041 
	C117.588173,593.609375 127.060860,595.474792 137.021133,593.364197 
	C146.373489,591.382446 155.481903,588.259338 164.715500,585.702881 
	C169.263687,584.443726 175.360672,587.067566 177.631393,591.125854 
	C179.963226,595.293335 178.966507,601.248108 176.033661,605.036621 
	C168.981613,614.146118 158.349457,615.874207 148.362823,618.993408 
	C137.059479,622.523926 125.285431,621.796326 113.979034,620.630249 
	C102.198883,619.415222 91.048195,614.514832 81.885689,606.345764 
	C79.126305,603.885498 76.626808,601.133789 73.753036,598.257080 
z"/>
<path fill="#F2A903" opacity="1.000000" stroke="none" 
	d="
M591.880676,438.039886 
	C586.084717,433.979004 585.066833,427.791962 585.043884,421.486877 
	C584.924500,388.683350 584.987854,355.879089 584.987671,323.075104 
	C584.987671,321.264984 584.987732,319.454865 584.987732,317.016418 
	C576.314453,317.016418 567.889343,317.098785 559.466797,316.988312 
	C553.567810,316.910980 548.611084,314.876251 544.035339,310.769073 
	C538.271973,305.595856 538.120544,294.723572 546.610413,289.219879 
	C549.095337,287.609039 552.269958,287.062347 555.660278,286.555664 
	C557.267761,287.388000 558.343018,287.957062 559.419250,287.958740 
	C590.447876,288.007355 621.476562,288.019043 652.504944,287.922577 
	C653.666748,287.918945 654.825012,286.775452 655.984985,286.163147 
	C665.462585,286.501648 670.770325,294.819244 670.849365,300.858612 
	C670.945374,308.188019 665.465088,315.169983 657.264771,315.912079 
	C647.080688,316.833740 636.829773,317.016296 625.978943,317.548920 
	C625.978943,353.232483 625.978943,389.158905 625.559998,425.618286 
	C623.112671,430.134613 621.084290,434.117981 619.055908,438.101318 
	C619.055908,438.101318 619.021606,438.021515 618.687622,438.054443 
	C612.451477,441.328552 606.362671,443.359589 599.543030,441.208801 
	C599.146240,441.083649 598.487183,441.790375 597.950195,442.109985 
	C597.364319,441.971558 596.778442,441.833099 596.052124,441.040771 
	C594.567993,439.604553 593.224304,438.822205 591.880676,438.039886 
z"/>
<path fill="#FFFFFF" opacity="1.000000" stroke="black" 
	d="
M493.565491,616.851685 
	C484.966827,611.048035 481.936249,603.009216 481.963745,593.301086 
	C482.058014,560.003235 482.060150,526.704651 481.965515,493.406769 
	C481.934540,482.516266 490.604156,473.637756 501.433990,473.975494 
	C511.197662,474.279999 520.066162,481.724030 520.031189,493.286499 
	C519.939087,523.754089 520.000061,554.222107 520.000061,584.689941 
	C520.000061,586.316528 520.000061,587.943054 520.000061,590.012390 
	C536.109680,590.012390 551.873779,590.016296 567.637878,590.010803 
	C575.468933,590.008118 581.736511,596.356628 582.067200,603.977295 
	C582.343506,610.344543 575.610840,618.364624 567.552795,618.180420 
	C544.921875,617.663208 522.271362,618.023987 499.628754,617.956543 
	C497.735626,617.950928 495.844330,617.330261 493.565491,616.851685 
z"/>
<path fill="#FFFFFF" opacity="1.000000" stroke="black" 
	d="
M365.016327,595.739868 
	C365.010590,561.302795 365.135773,527.336304 364.913910,493.372162 
	C364.856262,484.547791 371.426422,476.043152 379.544769,474.278229 
	C386.719727,472.718384 396.367676,474.664673 400.201599,484.702728 
	C401.489532,488.074860 402.852203,491.705933 402.877045,495.227875 
	C403.088257,525.196045 402.998749,555.166260 402.999390,585.135864 
	C402.999420,586.600769 402.999390,588.065613 402.999390,590.012146 
	C418.899811,590.012146 434.493744,590.101929 450.085632,589.961975 
	C455.323334,589.914917 459.245361,592.111633 462.425812,595.934692 
	C466.038574,600.277405 465.342102,609.273193 461.327057,613.213684 
	C458.014709,616.464417 454.533936,618.225769 449.487640,618.148376 
	C427.182129,617.806274 404.868378,618.005554 382.557617,617.997437 
	C375.053253,617.994690 368.277740,612.101624 366.970428,604.630249 
	C366.474609,601.796814 365.677582,599.016174 365.016327,595.739868 
z"/>
<path fill="#FFBB00" opacity="1.000000" stroke="none" 
	d="
M210.477203,810.909058 
	C211.344650,810.225403 212.649826,809.159119 214.010422,809.082886 
	C218.162048,808.850464 222.335037,808.999939 226.499710,808.999939 
	C425.238342,808.999146 623.976929,808.993469 822.715576,809.051086 
	C825.290771,809.051819 827.865662,809.857971 830.697754,810.565186 
	C824.463074,810.894287 817.971375,810.991760 811.479614,810.991821 
	C611.299805,810.993469 411.120056,810.985535 210.477203,810.909058 
z"/>
<path fill="#FDB700" opacity="1.000000" stroke="none" 
	d="
M828.523804,93.099312 
	C828.317078,93.769958 827.720520,94.737236 826.962646,94.886749 
	C825.517639,95.171844 823.980591,95.001068 822.481750,95.001083 
	C620.423279,95.002724 418.364868,95.005806 216.306442,94.958664 
	C214.277374,94.958191 212.248489,94.293121 210.116608,93.554718 
	C232.993637,93.118111 255.973602,93.020233 278.953552,93.019241 
	C461.989380,93.011345 645.025208,93.021820 828.523804,93.099312 
z"/>
<path fill="#FFB900" opacity="1.000000" stroke="none" 
	d="
M851.093506,304.478943 
	C851.776001,305.343781 852.919373,306.670044 852.922729,307.999207 
	C853.018677,346.069550 853.009888,384.140167 852.954956,422.210693 
	C852.953247,423.402924 852.282898,424.594177 851.539185,425.886536 
	C851.110474,385.638702 851.066772,345.290222 851.093506,304.478943 
z"/>
<path fill="#FFB900" opacity="1.000000" stroke="none" 
	d="
M655.521484,286.097290 
	C654.825012,286.775452 653.666748,287.918945 652.504944,287.922577 
	C621.476562,288.019043 590.447876,288.007355 559.419250,287.958740 
	C558.343018,287.957062 557.267761,287.388000 555.978882,286.652252 
	C581.044800,286.147308 606.323914,286.065796 631.602966,286.004333 
	C639.421204,285.985321 647.239624,286.020874 655.521484,286.097290 
z"/>
<path fill="#FFBB00" opacity="1.000000" stroke="none" 
	d="
M923.521606,286.090149 
	C922.997314,286.770447 922.013794,287.910126 921.021423,287.918030 
	C906.781738,288.031097 892.540833,288.006256 878.300476,287.944458 
	C877.606323,287.941437 876.914917,287.292847 876.119629,286.561768 
	C891.697510,286.126831 907.377869,286.075012 923.521606,286.090149 
z"/>
<path fill="#FDB504" opacity="1.000000" stroke="none" 
	d="
M853.937012,432.407104 
	C855.323547,433.260590 856.965942,434.311646 858.169556,435.733978 
	C863.346863,441.851959 869.871948,443.081238 877.318237,441.386658 
	C878.268433,441.170471 879.261108,441.141479 880.668091,441.043945 
	C876.021973,445.713196 865.146667,445.130157 859.221069,439.599121 
	C857.154907,437.670410 855.716187,435.069458 853.937012,432.407104 
z"/>
<path fill="#FCB503" opacity="1.000000" stroke="none" 
	d="
M598.155273,442.448364 
	C598.487183,441.790375 599.146240,441.083649 599.543030,441.208801 
	C606.362671,443.359589 612.451477,441.328552 618.727539,438.071594 
	C617.953308,442.990143 613.026306,442.681061 609.834106,443.635681 
	C606.401123,444.662292 602.216797,443.176392 598.155273,442.448364 
z"/>
<path fill="#FCB503" opacity="1.000000" stroke="none" 
	d="
M619.420166,438.058990 
	C621.084290,434.117981 623.112671,430.134613 625.481201,426.081787 
	C625.979431,431.105286 623.511108,434.877380 619.420166,438.058990 
z"/>
<path fill="#FDB504" opacity="1.000000" stroke="none" 
	d="
M881.421875,441.056213 
	C883.193542,439.086304 885.328247,437.064819 887.826172,435.011414 
	C886.054504,436.987885 883.919678,438.996277 881.421875,441.056213 
z"/>
<path fill="#FCB503" opacity="1.000000" stroke="none" 
	d="
M591.931396,438.405121 
	C593.224304,438.822205 594.567993,439.604553 595.934021,440.758942 
	C594.631653,440.344147 593.306824,439.557251 591.931396,438.405121 
z"/>
<path fill="#00000000" opacity="1.000000" stroke="none" 
	d="
M768.186768,318.691956 
	C776.224670,326.360962 780.362305,335.411438 781.034729,346.150574 
	C781.546997,354.333679 783.282715,362.559052 782.772705,370.658478 
	C782.066956,381.864624 781.068420,393.213379 775.232849,403.440704 
	C768.117615,415.910583 753.631897,420.038422 741.064697,417.098969 
	C725.253845,413.400818 719.279297,401.605408 717.166077,387.348969 
	C715.651611,377.132263 714.888062,366.664246 715.219971,356.354401 
	C715.535156,346.566223 716.983276,336.671356 722.015442,327.806183 
	C726.439209,320.012970 732.816650,314.759033 741.703186,313.179779 
	C751.049377,311.518768 760.030884,312.488647 768.186768,318.691956 
z"/>
<path fill="#00000000" opacity="1.000000" stroke="none" 
	d="
M908.844360,353.020508 
	C903.067993,353.020874 897.774292,353.020874 892.002747,353.020874 
	C892.002747,340.168579 891.918701,327.718597 892.147949,315.274445 
	C892.168274,314.171478 894.268555,312.132324 895.338501,312.174133 
	C905.855164,312.585022 916.414429,312.884277 926.846619,314.157379 
	C934.629089,315.107117 939.148865,322.701965 940.177673,330.619904 
	C941.828918,343.328461 930.342102,352.263641 918.614563,352.039429 
	C915.526123,351.980377 912.423340,352.672791 908.844360,353.020508 
z"/>
<path fill="#00000000" opacity="1.000000" stroke="none" 
	d="
M242.011108,564.536987 
	C241.663193,558.504333 241.137253,552.924500 241.027359,547.336487 
	C240.824615,537.027588 241.529587,526.680847 245.135239,517.004639 
	C251.085648,501.035889 265.460571,494.135498 281.936371,499.547333 
	C294.124512,503.550812 298.504181,514.036621 300.968994,525.476868 
	C304.076050,539.898071 303.843811,554.153748 300.465302,568.687744 
	C299.092651,574.592773 296.597900,579.635254 293.654327,584.359558 
	C289.687531,590.726074 282.676544,593.134705 275.378296,593.972290 
	C264.234222,595.251282 254.734299,591.665161 248.404404,582.419556 
	C245.540222,578.236023 244.746368,572.635803 243.008179,567.680054 
	C242.691666,566.777649 242.350525,565.883911 242.011108,564.536987 
z"/>
<path fill="#00000000" opacity="1.000000" stroke="none" 
	d="
M306.959229,381.015656 
	C307.152069,382.218689 307.313660,383.015564 307.474152,383.806183 
	C293.054901,383.799896 278.636719,383.799896 263.652710,383.799896 
	C270.996826,362.038055 278.216095,340.646118 285.711609,318.435547 
	C292.953644,339.658112 299.940857,360.133820 306.959229,381.015656 
z"/>
</svg>